HIERARCHY
ROOT Root
{
  OFFSET 0.0 0.0 0.0
  CHANNELS 6 Xposition Yposition Zposition Zrotation Yrotation Xrotation
  JOINT Hips
  {
    OFFSET 0.0 100.0 0.0
    CHANNELS 6 Xposition Yposition Zposition Zrotation Yrotation Xrotation
    JOINT Spine1
    {
      OFFSET 5.003913 -0.037094 -0.013727
      CHANNELS 3 Zrotation Yrotation Xrotation
      JOINT Spine2
      {
        OFFSET 7.125363 -1e-06 0.0
        CHANNELS 3 Zrotation Yrotation Xrotation
        JOINT Chest
        {
          OFFSET 7.594027 1e-06 0.0
          CHANNELS 3 Zrotation Yrotation Xrotation
          JOINT Neck1
          {
            OFFSET 26.313086 -0.460272 -0.181672
            CHANNELS 3 Zrotation Yrotation Xrotation
            JOINT Neck2
            {
              OFFSET 8.045911 0.0 0.0
              CHANNELS 3 Zrotation Yrotation Xrotation
              JOINT Head
              {
                OFFSET 6.432774 0.0 0.0
                CHANNELS 3 Zrotation Yrotation Xrotation
                JOINT HeadEnd
                {
                  OFFSET 16.169773 0.06451 0.00362
                  CHANNELS 3 Zrotation Yrotation Xrotation
                }
                JOINT Jaw
                {
                  OFFSET 0.108741 3.12938 0.002639
                  CHANNELS 3 Zrotation Yrotation Xrotation
                }
                JOINT LeftEye
                {
                  OFFSET 4.45173 8.166359 3.206392
                  CHANNELS 3 Zrotation Yrotation Xrotation
                }
                JOINT RightEye
                {
                  OFFSET 4.436895 8.135758 -3.222429
                  CHANNELS 3 Zrotation Yrotation Xrotation
                }
              }
            }
          }
          JOINT LeftShoulder
          {
            OFFSET 23.218927 5.195579 1.621656
            CHANNELS 3 Zrotation Yrotation Xrotation
            JOINT LeftArm
            {
              OFFSET 15.902118 2e-06 -2e-06
              CHANNELS 3 Zrotation Yrotation Xrotation
              JOINT LeftForeArm
              {
                OFFSET 28.739307 0.0 -1e-06
                CHANNELS 3 Zrotation Yrotation Xrotation
                JOINT LeftHand
                {
                  OFFSET 27.093981 -4e-06 0.0
                  CHANNELS 3 Zrotation Yrotation Xrotation
                  JOINT LeftHandThumb1
                  {
                    OFFSET 2.276781 3.380274 0.83384
                    CHANNELS 3 Zrotation Yrotation Xrotation
                    JOINT LeftHandThumb2
                    {
                      OFFSET 4.705309 -1e-06 -1e-06
                      CHANNELS 3 Zrotation Yrotation Xrotation
                      JOINT LeftHandThumb3
                      {
                        OFFSET 2.798515 0.0 3e-06
                        CHANNELS 3 Zrotation Yrotation Xrotation
                        JOINT LeftHandThumbEnd
                        {
                          OFFSET 3.180793 4e-06 -4e-06
                          CHANNELS 3 Zrotation Yrotation Xrotation
                        }
                      }
                    }
                  }
                  JOINT LeftHandIndex1
                  {
                    OFFSET 3.247786 2.352677 0.137192
                    CHANNELS 3 Zrotation Yrotation Xrotation
                    JOINT LeftHandIndex2
                    {
                      OFFSET 6.367095 1e-06 0.0
                      CHANNELS 3 Zrotation Yrotation Xrotation
                      JOINT LeftHandIndex3
                      {
                        OFFSET 3.662364 0.0 0.0
                        CHANNELS 3 Zrotation Yrotation Xrotation
                        JOINT LeftHandIndex4
                        {
                          OFFSET 2.329242 4e-06 -4e-06
                          CHANNELS 3 Zrotation Yrotation Xrotation
                          JOINT LeftHandIndexEnd
                          {
                            OFFSET 2.767823 1e-06 0.0
                            CHANNELS 3 Zrotation Yrotation Xrotation
                          }
                        }
                      }
                    }
                  }
                  JOINT LeftHandMiddle1
                  {
                    OFFSET 3.163612 0.945023 -0.406112
                    CHANNELS 3 Zrotation Yrotation Xrotation
                    JOINT LeftHandMiddle2
                    {
                      OFFSET 6.276789 3e-06 0.0
                      CHANNELS 3 Zrotation Yrotation Xrotation
                      JOINT LeftHandMiddle3
                      {
                        OFFSET 4.35652 -1e-06 4e-06
                        CHANNELS 3 Zrotation Yrotation Xrotation
                        JOINT LeftHandMiddle4
                        {
                          OFFSET 2.996877 0.0 8e-06
                          CHANNELS 3 Zrotation Yrotation Xrotation
                          JOINT LeftHandMiddleEnd
                          {
                            OFFSET 2.323256 3e-06 -4e-06
                            CHANNELS 3 Zrotation Yrotation Xrotation
                          }
                        }
                      }
                    }
                  }
                  JOINT LeftHandRing1
                  {
                    OFFSET 2.882606 -0.309162 0.107445
                    CHANNELS 3 Zrotation Yrotation Xrotation
                    JOINT LeftHandRing2
                    {
                      OFFSET 6.033198 0.0 4e-06
                      CHANNELS 3 Zrotation Yrotation Xrotation
                      JOINT LeftHandRing3
                      {
                        OFFSET 4.350578 3e-06 0.0
                        CHANNELS 3 Zrotation Yrotation Xrotation
                        JOINT LeftHandRing4
                        {
                          OFFSET 2.651321 2e-06 -7e-06
                          CHANNELS 3 Zrotation Yrotation Xrotation
                          JOINT LeftHandRingEnd
                          {
                            OFFSET 1.937663 1e-06 -4e-06
                            CHANNELS 3 Zrotation Yrotation Xrotation
                          }
                        }
                      }
                    }
                  }
                  JOINT LeftHandPinky1
                  {
                    OFFSET 2.865315 -1.525436 0.575687
                    CHANNELS 3 Zrotation Yrotation Xrotation
                    JOINT LeftHandPinky2
                    {
                      OFFSET 5.54936 1e-06 -8e-06
                      CHANNELS 3 Zrotation Yrotation Xrotation
                      JOINT LeftHandPinky3
                      {
                        OFFSET 3.070974 0.0 -4e-06
                        CHANNELS 3 Zrotation Yrotation Xrotation
                        JOINT LeftHandPinky4
                        {
                          OFFSET 1.549672 1e-06 0.0
                          CHANNELS 3 Zrotation Yrotation Xrotation
                          JOINT LeftHandPinkyEnd
                          {
                            OFFSET 1.952123 0.0 0.0
                            CHANNELS 3 Zrotation Yrotation Xrotation
                          }
                        }
                      }
                    }
                  }
                }
              }
            }
          }
          JOINT RightShoulder
          {
            OFFSET 23.161716 5.296122 -1.380114
            CHANNELS 3 Zrotation Yrotation Xrotation
            JOINT RightArm
            {
              OFFSET -16.027195 -2e-06 1.1e-05
              CHANNELS 3 Zrotation Yrotation Xrotation
              JOINT RightForeArm
              {
                OFFSET -28.736639 4e-06 2e-06
                CHANNELS 3 Zrotation Yrotation Xrotation
                JOINT RightHand
                {
                  OFFSET -27.133619 6e-06 0.0
                  CHANNELS 3 Zrotation Yrotation Xrotation
                  JOINT RightHandThumb1
                  {
                    OFFSET -2.274328 -3.351035 -0.83067
                    CHANNELS 3 Zrotation Yrotation Xrotation
                    JOINT RightHandThumb2
                    {
                      OFFSET -4.703594 -3e-06 2e-06
                      CHANNELS 3 Zrotation Yrotation Xrotation
                      JOINT RightHandThumb3
                      {
                        OFFSET -2.794935 -4e-06 -3e-06
                        CHANNELS 3 Zrotation Yrotation Xrotation
                        JOINT RightHandThumbEnd
                        {
                          OFFSET -3.183852 4e-06 1e-06
                          CHANNELS 3 Zrotation Yrotation Xrotation
                        }
                      }
                    }
                  }
                  JOINT RightHandIndex1
                  {
                    OFFSET -3.253496 -2.33755 -0.127667
                    CHANNELS 3 Zrotation Yrotation Xrotation
                    JOINT RightHandIndex2
                    {
                      OFFSET -6.344434 0.0 0.0
                      CHANNELS 3 Zrotation Yrotation Xrotation
                      JOINT RightHandIndex3
                      {
                        OFFSET -3.654871 0.0 -8e-06
                        CHANNELS 3 Zrotation Yrotation Xrotation
                        JOINT RightHandIndex4
                        {
                          OFFSET -2.327586 -1e-06 0.0
                          CHANNELS 3 Zrotation Yrotation Xrotation
                          JOINT RightHandIndexEnd
                          {
                            OFFSET -2.770001 3e-06 8e-06
                            CHANNELS 3 Zrotation Yrotation Xrotation
                          }
                        }
                      }
                    }
                  }
                  JOINT RightHandMiddle1
                  {
                    OFFSET -3.168223 -0.944764 0.411762
                    CHANNELS 3 Zrotation Yrotation Xrotation
                    JOINT RightHandMiddle2
                    {
                      OFFSET -6.266691 -1e-06 -4e-06
                      CHANNELS 3 Zrotation Yrotation Xrotation
                      JOINT RightHandMiddle3
                      {
                        OFFSET -4.348901 0.0 0.0
                        CHANNELS 3 Zrotation Yrotation Xrotation
                        JOINT RightHandMiddle4
                        {
                          OFFSET -3.00024 2e-06 -4e-06
                          CHANNELS 3 Zrotation Yrotation Xrotation
                          JOINT RightHandMiddleEnd
                          {
                            OFFSET -2.321477 -4e-06 -4e-06
                            CHANNELS 3 Zrotation Yrotation Xrotation
                          }
                        }
                      }
                    }
                  }
                  JOINT RightHandRing1
                  {
                    OFFSET -2.885654 0.293261 -0.119232
                    CHANNELS 3 Zrotation Yrotation Xrotation
                    JOINT RightHandRing2
                    {
                      OFFSET -6.032835 -1e-06 -4e-06
                      CHANNELS 3 Zrotation Yrotation Xrotation
                      JOINT RightHandRing3
                      {
                        OFFSET -4.33881 0.0 -4e-06
                        CHANNELS 3 Zrotation Yrotation Xrotation
                        JOINT RightHandRing4
                        {
                          OFFSET -2.654903 -4e-06 -4e-06
                          CHANNELS 3 Zrotation Yrotation Xrotation
                          JOINT RightHandRingEnd
                          {
                            OFFSET -1.935122 0.0 4e-06
                            CHANNELS 3 Zrotation Yrotation Xrotation
                          }
                        }
                      }
                    }
                  }
                  JOINT RightHandPinky1
                  {
                    OFFSET -2.866241 1.503904 -0.60527
                    CHANNELS 3 Zrotation Yrotation Xrotation
                    JOINT RightHandPinky2
                    {
                      OFFSET -5.553177 -2e-06 0.0
                      CHANNELS 3 Zrotation Yrotation Xrotation
                      JOINT RightHandPinky3
                      {
                        OFFSET -3.062664 -1e-06 -4e-06
                        CHANNELS 3 Zrotation Yrotation Xrotation
                        JOINT RightHandPinky4
                        {
                          OFFSET -1.546529 2e-06 4e-06
                          CHANNELS 3 Zrotation Yrotation Xrotation
                          JOINT RightHandPinkyEnd
                          {
                            OFFSET -1.952341 0.0 -4e-06
                            CHANNELS 3 Zrotation Yrotation Xrotation
                          }
                        }
                      }
                    }
                  }
                }
              }
            }
          }
        }
      }
    }
    JOINT LeftLeg
    {
      OFFSET -8.443107 2.567604 10.043214
      CHANNELS 3 Zrotation Yrotation Xrotation
      JOINT LeftShin
      {
        OFFSET 43.229198 1e-06 -1e-06
        CHANNELS 3 Zrotation Yrotation Xrotation
        JOINT LeftFoot
        {
          OFFSET 42.298611 1e-06 1e-06
          CHANNELS 3 Zrotation Yrotation Xrotation
          JOINT LeftToeBase
          {
            OFFSET 14.165858 1e-06 0.0
            CHANNELS 3 Zrotation Yrotation Xrotation
            JOINT LeftToeEnd
            {
              OFFSET 6.7141 -0.234461 0.0
              CHANNELS 3 Zrotation Yrotation Xrotation
            }
          }
        }
      }
    }
    JOINT RightLeg
    {
      OFFSET -8.303923 2.592729 -10.047278
      CHANNELS 3 Zrotation Yrotation Xrotation
      JOINT RightShin
      {
        OFFSET -43.369682 0.0 1e-06
        CHANNELS 3 Zrotation Yrotation Xrotation
        JOINT RightFoot
        {
          OFFSET -42.260784 4e-06 2e-06
          CHANNELS 3 Zrotation Yrotation Xrotation
          JOINT RightToeBase
          {
            OFFSET -14.222245 -2e-06 -1e-06
            CHANNELS 3 Zrotation Yrotation Xrotation
            JOINT RightToeEnd
            {
              OFFSET -6.660062 0.232574 -2e-06
              CHANNELS 3 Zrotation Yrotation Xrotation
            }
          }
        }
      }
    }
  }
}
MOTION
Frames: 5
Frame Time: 0.03333333333333333
0.0 0.0 0.0 0.0 -0.0 0.0 4.887731 100.047577 -3.485511 89.927696 2.045164 90.20166 -2.092618 0.23987 -0.156802 -11.786398 -0.612258 -0.453851 19.556078 0.363995 -2.340595 22.584604 -1.198397 2.572204 -2.555023 -0.703547 0.168907 -30.980595 -1.020637 0.483328 6e-06 0.0 -0.0 0.002444 0.013968 -0.074959 -0.031642 0.032362 -0.075491 -0.041533 -0.006104 -0.070304 -102.821465 -75.023216 117.924515 46.832134 -63.754768 6.021734 31.540113 -0.105564 0.182186 1.199185 6.636592 16.167778 17.636637 -26.322744 52.411213 -19.466665 -14.395598 29.410395 -1e-06 -8.774822 -2e-06 15.676522 -18.214127 6.387411 -0.609775 -1.795654 -3.889327 -4.807088 -11.046812 -2.937852 5e-06 -20.976021 2e-06 -5.019971 -25.03356 -4.031883 7e-06 0.0 -0.0 -10.634533 -5.68697 -3.565586 10.573275 -17.922955 -3.113903 1e-06 -13.821211 2e-06 -0.501778 -31.181511 -4.027017 -11.693024 -59.760078 7.641133 -13.982715 -7.150197 -2.87504 13.772731 -8.401492 -3.218242 0.347734 -34.211555 0.771655 -0.963029 -17.73337 2.621023 -0.0 0.0 0.0 -17.346422 -20.095217 -4.201784 21.757561 -1.638376 3.866431 -1e-06 -6.338824 2e-06 -1.697591 -22.591751 -6.194009 -1e-06 -4e-06 -1e-06 58.66164 -77.370285 137.90155 42.790581 -62.930393 1.22593 31.876455 0.067067 0.017062 2.358717 -2.263873 4.758831 22.182119 -20.375895 49.933323 -16.701813 -16.74353 28.476532 -1e-06 -12.690601 -3e-06 16.316233 -17.971344 2.407566 -0.105919 -1.513855 -4.275883 -5.039042 -5.612872 -2.953556 1e-06 -11.02052 0.0 -6.1113 -15.89533 -3.840472 -0.0 -0.0 -0.0 -10.283371 -5.680289 -4.341838 11.028294 -11.302402 -2.372633 -1.384271 -14.238583 -6.320122 -0.625439 -26.924191 -3.827602 -4.124644 -49.718719 -4.054758 -13.708526 -7.363476 -3.72094 18.141148 -14.052737 -3.242673 5e-06 -18.78727 -1e-06 -0.429714 -8.456043 2.555506 1e-06 -0.0 1e-06 -15.923539 -20.094482 -5.473585 30.419214 -7.190825 1.73593 3e-06 -8.162926 -0.0 -1.861906 -22.861467 -6.167942 0.0 -4e-06 -0.0 -172.216721 -1.272323 -10.037478 5.743729 -0.026215 -0.02716 -79.603333 -0.349177 -3.259713 -5.250257 1.417344 2.095421 -0.999999 0.0 0.0 4.79553 -2.186391 -0.868274 8.182759 -0.036835 -0.002598 -79.564728 -5.564421 -5.702302 -5.131787 0.774507 1.676795 -1.000002 0.0 -0.0 
0.0 0.0 0.0 0.0 -0.0 0.0 4.866886 100.082848 -3.471474 89.93087 2.041629 90.254242 -2.031236 0.23647 -0.18781 -11.756507 -0.60499 -0.446257 19.597168 0.342685 -2.404907 22.677647 -1.24894 2.549006 -2.533002 -0.651152 0.163134 -31.175882 -1.017003 0.438471 6e-06 0.0 -0.0 0.003025 0.015004 -0.042534 -0.004998 0.032918 -0.04026 -0.018716 -0.00437 -0.040279 -102.45401 -75.001091 117.730637 46.314205 -63.869556 5.704532 32.064827 -0.195858 0.132919 1.428046 6.861248 16.932095 17.636631 -26.322729 52.411182 -19.466661 -14.395597 29.410389 1e-06 -8.774821 -1e-06 15.625911 -18.141438 6.387893 -0.609777 -1.795655 -3.889327 -4.807089 -11.046812 -2.937851 4e-06 -20.976019 -0.0 -5.019971 -25.03356 -4.031879 7e-06 1e-06 1e-06 -10.634534 -5.686972 -3.565586 10.573271 -17.922951 -3.113899 1e-06 -13.82121 0.0 -0.50178 -31.181505 -4.027016 -11.627889 -59.674755 7.680191 -13.982714 -7.150198 -2.875039 13.77273 -8.401492 -3.218241 0.347731 -34.211555 0.771655 -0.963032 -17.73337 2.621021 -0.0 0.0 -1e-06 -17.346418 -20.095221 -4.201782 21.757557 -1.638373 3.866428 0.0 -6.338824 1e-06 -1.697589 -22.591751 -6.194006 -2e-06 -3e-06 -1e-06 59.026501 -77.212318 137.824585 42.148319 -62.657028 1.238427 33.429111 -0.008945 -0.04184 2.405396 -2.418122 4.739664 22.182117 -20.375896 49.933319 -16.701813 -16.74353 28.47653 -3e-06 -12.690601 -3e-06 16.306559 -17.935909 2.388219 -0.105919 -1.513856 -4.275879 -5.039042 -5.612871 -2.95356 3e-06 -11.020523 -1e-06 -6.111297 -15.89533 -3.84047 -0.0 -0.0 -1e-06 -10.283369 -5.680288 -4.341837 11.028296 -11.302406 -2.372633 -1.384268 -14.238579 -6.320122 -0.625436 -26.924187 -3.827599 -4.075416 -49.74984 -4.086283 -13.708526 -7.363477 -3.720941 18.14115 -14.05274 -3.242672 6e-06 -18.78727 0.0 -0.429709 -8.456045 2.555506 -1e-06 -0.0 0.0 -15.923536 -20.094482 -5.473588 30.41921 -7.190829 1.735928 4e-06 -8.162929 -1e-06 -1.861903 -22.861467 -6.167939 1e-06 -5e-06 -0.0 -172.194366 -1.287074 -9.827266 5.687978 -0.00805 0.006576 -79.432991 -0.42813 -3.372422 -5.310708 1.435576 2.100974 -0.999998 0.0 -0.0 4.570247 -2.148145 -0.778705 8.686691 -0.04085 0.016571 -79.552818 -5.817442 -5.755874 -5.174529 0.76909 1.680443 -1.000001 0.0 0.0 
0.0 0.0 0.0 0.0 -0.0 0.0 4.822578 100.091553 -3.475647 89.980415 2.046189 90.371758 -1.97288 0.204218 -0.21949 -11.739494 -0.607444 -0.461492 19.709946 0.298426 -2.454544 22.773214 -1.29306 2.571096 -2.552238 -0.606225 0.113879 -31.370451 -1.007282 0.345278 6e-06 0.0 -0.0 0.006304 0.016242 -0.033408 -0.001148 0.02903 -0.029523 -0.014556 0.001855 -0.032437 -101.913109 -74.981369 117.343842 45.190445 -63.996346 5.980792 32.794628 -0.274226 0.076027 1.589524 7.143287 17.643026 17.636629 -26.322727 52.411194 -19.466661 -14.395597 29.410389 -1e-06 -8.774822 -2e-06 15.572488 -18.112127 6.399384 -0.609776 -1.795654 -3.889327 -4.80709 -11.046811 -2.937852 5e-06 -20.976015 -0.0 -5.01997 -25.033556 -4.03188 7e-06 -1e-06 1e-06 -10.634535 -5.68697 -3.565588 10.573275 -17.922951 -3.1139 1e-06 -13.821209 1e-06 -0.501779 -31.181505 -4.027013 -11.646226 -59.568954 7.705801 -13.982712 -7.150197 -2.87504 13.77273 -8.401491 -3.218244 0.347735 -34.211552 0.771654 -0.963028 -17.73337 2.621021 -0.0 1e-06 -1e-06 -17.34642 -20.095217 -4.201782 21.757557 -1.638375 3.866428 -0.0 -6.338824 1e-06 -1.697588 -22.591745 -6.194008 -1e-06 -5e-06 -1e-06 59.494282 -77.10006 137.607193 40.855934 -62.337452 1.931163 35.926712 -0.091087 -0.115438 2.363851 -2.510766 4.888187 22.182114 -20.375895 49.933319 -16.701809 -16.743528 28.476522 -2e-06 -12.690601 -0.0 16.302767 -17.897078 2.383458 -0.105921 -1.513857 -4.275882 -5.03904 -5.612871 -2.953554 3e-06 -11.02052 0.0 -6.1113 -15.89533 -3.840472 -0.0 1e-06 -2e-06 -10.283371 -5.680288 -4.341835 11.028294 -11.302402 -2.372633 -1.384271 -14.238577 -6.32012 -0.62544 -26.924187 -3.8276 -4.051724 -49.744709 -4.122187 -13.708525 -7.363476 -3.720938 18.141146 -14.052734 -3.242671 6e-06 -18.787266 -1e-06 -0.429714 -8.456041 2.555505 1e-06 -1e-06 -0.0 -15.923538 -20.094482 -5.47358 30.41921 -7.190823 1.735926 1e-06 -8.162924 1e-06 -1.861903 -22.861465 -6.16794 2e-06 -6e-06 -1e-06 -172.200897 -1.281269 -9.538684 5.742449 0.001961 0.015068 -79.375587 -0.50033 -3.435192 -5.355569 1.448655 2.107427 -0.999999 0.0 0.0 4.273356 -2.147159 -0.730767 9.362754 -0.040664 0.023747 -79.721863 -6.114853 -5.834765 -5.174289 0.780711 1.68564 -1.000003 0.0 -0.0 
0.0 0.0 0.0 0.0 -0.0 0.0 4.728987 100.094185 -3.439281 90.035515 2.069032 90.488396 -1.895352 0.16198 -0.250395 -11.721899 -0.594338 -0.469978 19.849604 0.240462 -2.480179 22.836777 -1.364627 2.594043 -2.569546 -0.583731 0.106127 -31.679441 -0.954902 0.234323 6e-06 0.0 -0.0 0.010962 0.016857 -0.036702 -0.00622 0.022581 -0.034193 -0.019349 0.009371 -0.033987 -101.188629 -74.915642 116.788216 43.521511 -64.057182 7.013026 33.571712 -0.333515 0.014673 1.727923 7.525893 18.459665 17.636627 -26.322729 52.41119 -19.46666 -14.395597 29.410389 -1e-06 -8.774821 -3e-06 15.523723 -18.070564 6.400172 -0.609775 -1.795653 -3.889329 -4.807089 -11.046811 -2.93785 6e-06 -20.976019 -2e-06 -5.01997 -25.03356 -4.031879 4e-06 0.0 1e-06 -10.634533 -5.686968 -3.565587 10.573272 -17.922947 -3.113901 2e-06 -13.821206 1e-06 -0.501778 -31.181501 -4.027016 -11.666819 -59.525112 7.730954 -13.982713 -7.150197 -2.875041 13.772731 -8.40149 -3.218244 0.347734 -34.211555 0.771654 -0.963027 -17.73337 2.621022 -1e-06 1e-06 -1e-06 -17.346415 -20.095215 -4.201784 21.757557 -1.638375 3.866427 0.0 -6.338823 1e-06 -1.697591 -22.591742 -6.194003 -0.0 -5e-06 -1e-06 60.29105 -77.081161 137.054688 39.015015 -61.906403 3.487674 39.615421 -0.114575 -0.185334 2.300292 -2.719464 5.289253 22.182121 -20.375895 49.933331 -16.701815 -16.743528 28.476534 -2e-06 -12.690603 -0.0 16.271736 -17.874331 2.384165 -0.105919 -1.513857 -4.275883 -5.039042 -5.612873 -2.953557 4e-06 -11.020527 -1e-06 -6.111301 -15.895336 -3.840471 0.0 -0.0 -0.0 -10.28337 -5.680289 -4.34184 11.028292 -11.302408 -2.372633 -1.384269 -14.238585 -6.320123 -0.625439 -26.924198 -3.827604 -4.071909 -49.703896 -4.134581 -13.708526 -7.363479 -3.720941 18.14115 -14.05274 -3.242676 7e-06 -18.787271 -1e-06 -0.42971 -8.456043 2.555503 -0.0 -0.0 0.0 -15.923536 -20.094486 -5.473588 30.419218 -7.190826 1.735926 3e-06 -8.162927 -1e-06 -1.8619 -22.861473 -6.167946 1e-06 -4e-06 -0.0 -172.177856 -1.286513 -9.250428 5.800043 0.009509 0.007292 -79.331207 -0.583881 -3.473912 -5.41055 1.450973 2.108644 -0.999998 0.0 0.0 3.98797 -2.128587 -0.706777 10.089102 -0.042084 0.024536 -79.926743 -6.405454 -5.892058 -5.189174 0.788561 1.68843 -1.000002 0.0 0.0 
0.0 0.0 0.0 0.0 -0.0 0.0 4.620488 100.093971 -3.339585 90.082024 2.109697 90.592331 -1.791455 0.135784 -0.263609 -11.694305 -0.567078 -0.462968 20.010628 0.166244 -2.507192 22.770729 -1.466026 2.611136 -2.567148 -0.538829 0.104271 -32.125229 -0.837878 0.179958 6e-06 0.0 -0.0 0.019101 0.016204 -0.042946 -0.000969 0.014604 -0.043707 -0.018218 0.016229 -0.036807 -100.172569 -74.807281 115.992081 41.270664 -64.022545 8.899854 34.309845 -0.411015 -0.054816 1.831975 8.036998 19.42441 17.636633 -26.322729 52.411198 -19.466665 -14.395597 29.410395 -1e-06 -8.774822 -2e-06 15.479623 -18.007212 6.393106 -0.609777 -1.795654 -3.889328 -4.807091 -11.046813 -2.937851 5e-06 -20.976021 -1e-06 -5.01997 -25.033566 -4.031882 5e-06 1e-06 3e-06 -10.634535 -5.68697 -3.565587 10.573275 -17.922953 -3.113903 4e-06 -13.821211 -1e-06 -0.501777 -31.181511 -4.027017 -11.689934 -59.520176 7.764503 -13.982716 -7.150198 -2.875043 13.772731 -8.401493 -3.218242 0.347734 -34.211555 0.771652 -0.963029 -17.733368 2.621021 0.0 0.0 1e-06 -17.346418 -20.095221 -4.20178 21.757557 -1.638374 3.866428 1e-06 -6.338825 1e-06 -1.697589 -22.591745 -6.194006 -0.0 -4e-06 -2e-06 61.49979 -77.181709 136.04483 36.663876 -61.260773 5.972495 44.818298 -0.090549 -0.233516 2.3443 -3.151752 6.101435 22.182116 -20.375891 49.933315 -16.701813 -16.743528 28.47653 -4e-06 -12.6906 -1e-06 16.211298 -17.895594 2.398109 -0.10592 -1.513856 -4.275885 -5.039041 -5.612872 -2.953556 6e-06 -11.020523 -2e-06 -6.111297 -15.89533 -3.840471 1e-06 -1e-06 -0.0 -10.283371 -5.680288 -4.341838 11.028294 -11.302403 -2.372636 -1.384269 -14.238582 -6.320118 -0.625438 -26.924187 -3.827601 -4.127647 -49.683384 -4.136549 -13.708524 -7.363475 -3.720941 18.14115 -14.052739 -3.242677 7e-06 -18.78727 -2e-06 -0.429715 -8.456041 2.555502 0.0 -1e-06 -2e-06 -15.923534 -20.094482 -5.473586 30.41921 -7.190828 1.735928 5e-06 -8.162925 -3e-06 -1.861902 -22.861467 -6.167941 1e-06 -3e-06 -2e-06 -172.105469 -1.317213 -8.88924 5.837965 0.014551 -0.012061 -79.287224 -0.744092 -3.509927 -5.462462 1.45706 2.108502 -0.999999 0.0 0.0 3.759068 -2.089969 -0.678542 10.809781 -0.038378 0.034377 -80.128571 -6.713924 -5.939061 -5.236719 0.791284 1.688965 -1.000001 -0.0 0.0 
